<?xml version="1.0" encoding="utf-8"?>
<!-- Generator: Adobe Illustrator 27.5.0, SVG Export Plug-In . SVG Version: 6.00 Build 0)  -->
<svg version="1.1" xmlns="http://www.w3.org/2000/svg" xmlns:xlink="http://www.w3.org/1999/xlink" x="0px" y="0px"
	 viewBox="0 0 500 500" style="enable-background:new 0 0 500 500;" xml:space="preserve">
<g id="Background_Simple">
	<g>
		<path style="fill:#92E3A9;" d="M338.956,93.477c-17.026,9.667-35.501,21.61-56.145,22.692
			c-21.344,1.119-41.389-10.14-62.071-13.804C131.808,86.609,30.843,154.754,13.374,243.846
			c-8.931,45.549,4.457,89.316,28.051,128.417c49.63,82.248,122.762,111.593,175.597,96.909
			c33.095-9.198,51.944-44.157,72.287-68.939c26.27-32.002,55.336-47.091,96.292-52.678c34.654-4.727,66.733-11.457,85.905-43.472
			c16.523-27.591,21.741-62.294,20.382-94.026c-2.564-59.856-55.473-144.927-125.349-128.381
			C356.781,83.986,347.769,88.473,338.956,93.477z"/>
		<path style="opacity:0.8;fill:#FFFFFF;" d="M338.956,93.477c-17.026,9.667-35.501,21.61-56.145,22.692
			c-21.344,1.119-41.389-10.14-62.071-13.804C131.808,86.609,30.843,154.754,13.374,243.846
			c-8.931,45.549,4.457,89.316,28.051,128.417c49.63,82.248,122.762,111.593,175.597,96.909
			c33.095-9.198,51.944-44.157,72.287-68.939c26.27-32.002,55.336-47.091,96.292-52.678c34.654-4.727,66.733-11.457,85.905-43.472
			c16.523-27.591,21.741-62.294,20.382-94.026c-2.564-59.856-55.473-144.927-125.349-128.381
			C356.781,83.986,347.769,88.473,338.956,93.477z"/>
	</g>
</g>
<g id="Floor">
	<g>
		<path style="fill:none;stroke:#263238;stroke-miterlimit:10;" d="M374.76,449.075c14.414,1.96,24.904,3.029,26.072,3.029"/>
		<path style="fill:none;stroke:#263238;stroke-miterlimit:10;" d="M57.429,359.111c14.246,1.045,35.833,3.991,64.666,11.654
			c45.705,12.147,142.84,52.573,177.559,63.485c18.695,5.875,45.73,10.6,67.168,13.71"/>
		<path style="fill:none;stroke:#263238;stroke-miterlimit:10;" d="M36.787,358.861c0,0,3.634-0.399,10.869-0.233"/>
		<path style="fill:none;stroke:#263238;stroke-miterlimit:10;" d="M468.536,402.179c2.331,0.035,4.559,0.142,6.692,0.328"/>
		<path style="fill:none;stroke:#263238;stroke-miterlimit:10;" d="M238.292,411.529c0,0,71.281,13.792,125.838,4.865
			c45.067-7.375,75.919-13.395,98.149-14.149"/>
		<path style="fill:none;stroke:#263238;stroke-miterlimit:10;" d="M199.664,430.55c-0.402,1.236-3.305,1.399-6.483,0.365
			c-3.178-1.035-5.429-2.875-5.027-4.111c0.402-1.236,3.305-1.399,6.484-0.365C197.816,427.474,200.067,429.314,199.664,430.55z"/>
		<path style="fill:none;stroke:#263238;stroke-miterlimit:10;" d="M268.486,437.001c-0.201,0.618-1.653,0.7-3.242,0.182
			c-1.589-0.517-2.714-1.438-2.513-2.056c0.201-0.618,1.652-0.7,3.242-0.182S268.687,436.383,268.486,437.001z"/>
		<path style="fill:none;stroke:#263238;stroke-miterlimit:10;" d="M230.386,439.319c-0.281,0.863-2.253,0.996-4.405,0.295
			c-2.151-0.7-3.668-1.968-3.387-2.831c0.281-0.863,2.253-0.996,4.405-0.295C229.151,437.188,230.667,438.455,230.386,439.319z"/>
		<path style="fill:none;stroke:#263238;stroke-miterlimit:10;" d="M192.425,407.418c-0.281,0.863-2.253,0.996-4.405,0.295
			c-2.151-0.7-3.668-1.968-3.387-2.831c0.281-0.863,2.253-0.996,4.404-0.295C191.19,405.286,192.706,406.554,192.425,407.418z"/>
		<path style="fill:none;stroke:#263238;stroke-miterlimit:10;" d="M81.608,396.063c-0.281,0.863-2.253,0.996-4.404,0.295
			c-2.152-0.7-3.668-1.968-3.387-2.832c0.281-0.863,2.253-0.996,4.405-0.295C80.373,393.931,81.889,395.199,81.608,396.063z"/>
		<path style="fill:none;stroke:#263238;stroke-miterlimit:10;" d="M359.536,424.341c0.009,0.908-1.817,1.663-4.08,1.686
			c-2.262,0.023-4.104-0.694-4.113-1.602c-0.009-0.908,1.817-1.663,4.08-1.686C357.685,422.716,359.527,423.433,359.536,424.341z"/>
		<path style="fill:none;stroke:#263238;stroke-miterlimit:10;" d="M331.038,429.204c0.005,0.454-0.909,0.831-2.04,0.843
			c-1.131,0.012-2.052-0.347-2.057-0.801c-0.005-0.454,0.909-0.831,2.04-0.843C330.113,428.392,331.034,428.75,331.038,429.204z"/>
		<path style="fill:none;stroke:#263238;stroke-miterlimit:10;" d="M381.549,428.17c0.005,0.454-0.909,0.831-2.04,0.843
			c-1.131,0.011-2.052-0.347-2.057-0.801c-0.005-0.454,0.909-0.831,2.04-0.843C380.623,427.358,381.544,427.716,381.549,428.17z"/>
	</g>
</g>
<g id="Clouds">
	<g>
		<g>
			<g>
				<path style="fill:none;stroke:#263238;stroke-linecap:round;stroke-linejoin:round;stroke-miterlimit:10;" d="M280.436,130.963
					c-8.305-4.529-12.079-0.755-15.099-4.529c-3.02-3.775,8.304-13.59-14.345-23.405c0,0-1.51-21.139-32.464-21.894
					c-30.954-0.755-22.649,21.14-30.954,26.424c-8.305,5.285-10.57-3.02-18.875,2.265c-8.305,5.285-4.53,15.855-11.325,17.365
					c-6.794,1.51-15.854-6.795-24.159-1.51c-8.304,5.284-8.304,9.814-12.079,9.814c-3.775,0-11.325-3.02-15.855,0
					c-4.53,3.02-9.814,6.795-9.814,6.795h191.009C286.476,142.288,288.741,135.493,280.436,130.963z"/>
			</g>
		</g>
		<path style="fill:none;stroke:#263238;stroke-linecap:round;stroke-linejoin:round;stroke-miterlimit:10;" d="M167.443,127.862
			c-0.896,0.517-2.001,1.045-3.37,1.592"/>
		<path style="fill:none;stroke:#263238;stroke-linecap:round;stroke-linejoin:round;stroke-miterlimit:10;" d="M208.305,92.594
			c0,0-5.99,2.304-7.372,9.215c-1.382,6.911-4.607,11.519-8.294,11.979c-3.686,0.461-17.508-0.922-19.812,4.147
			c-0.809,1.78-0.993,3.276-1.29,4.628"/>
	</g>
	<g>
		<g>
			<g>
				<path style="fill:none;stroke:#263238;stroke-linecap:round;stroke-linejoin:round;stroke-miterlimit:10;" d="M90.869,139.268
					c-2.437-1.329-3.545-0.221-4.431-1.329c-0.886-1.108,2.437-3.988-4.21-6.868c0,0-0.443-6.203-9.527-6.425
					c-9.084-0.222-6.646,6.204-9.084,7.754c-2.437,1.551-3.102-0.886-5.539,0.665c-2.437,1.551-1.329,4.653-3.323,5.096
					c-1.994,0.443-4.653-1.994-7.09-0.443c-2.437,1.551-2.437,2.88-3.545,2.88s-3.323-0.886-4.653,0
					c-1.329,0.886-2.88,1.994-2.88,1.994h56.053C92.641,142.592,93.306,140.598,90.869,139.268z"/>
			</g>
		</g>
		<path style="fill:none;stroke:#263238;stroke-linecap:round;stroke-linejoin:round;stroke-miterlimit:10;" d="M57.71,138.358
			c-0.263,0.152-0.587,0.307-0.989,0.467"/>
		<path style="fill:none;stroke:#263238;stroke-linecap:round;stroke-linejoin:round;stroke-miterlimit:10;" d="M69.701,128.009
			c0,0-1.758,0.676-2.163,2.704c-0.406,2.028-1.352,3.38-2.434,3.515c-1.082,0.135-5.138-0.27-5.814,1.217
			c-0.238,0.523-0.292,0.961-0.379,1.358"/>
	</g>
	<g>
		<g>
			<g>
				<path style="fill:none;stroke:#263238;stroke-linecap:round;stroke-linejoin:round;stroke-miterlimit:10;" d="M441.714,71.563
					c-6.238-3.402-9.073-0.567-11.341-3.402c-2.268-2.836,6.237-10.207-10.774-17.579c0,0-1.134-15.877-24.383-16.444
					c-23.249-0.567-17.012,15.878-23.249,19.847c-6.238,3.969-7.939-2.268-14.177,1.701c-6.238,3.97-3.403,11.909-8.506,13.043
					c-5.103,1.134-11.908-5.103-18.146-1.134c-6.237,3.969-6.237,7.371-9.073,7.371c-2.835,0-8.506-2.268-11.909,0
					c-3.402,2.268-7.371,5.104-7.371,5.104H446.25C446.25,80.069,447.951,74.966,441.714,71.563z"/>
			</g>
		</g>
		<path style="fill:none;stroke:#263238;stroke-linecap:round;stroke-linejoin:round;stroke-miterlimit:10;" d="M356.845,69.234
			c-0.673,0.389-1.503,0.785-2.531,1.196"/>
		<path style="fill:none;stroke:#263238;stroke-linecap:round;stroke-linejoin:round;stroke-miterlimit:10;" d="M387.536,42.745
			c0,0-4.499,1.73-5.537,6.921c-1.038,5.191-3.461,8.652-6.229,8.998c-2.768,0.346-13.15-0.692-14.881,3.115
			c-0.608,1.337-0.746,2.461-0.969,3.476"/>
	</g>
	<g>
		<g>
			<g>
				<path style="fill:none;stroke:#263238;stroke-linecap:round;stroke-linejoin:round;stroke-miterlimit:10;" d="M459.958,104.493
					c-2.437-1.329-3.545-0.221-4.431-1.329c-0.886-1.108,2.437-3.988-4.21-6.868c0,0-0.443-6.203-9.527-6.425
					c-9.084-0.222-6.646,6.203-9.084,7.754c-2.437,1.551-3.102-0.886-5.539,0.665c-2.437,1.551-1.329,4.653-3.323,5.096
					c-1.994,0.443-4.652-1.994-7.09-0.443c-2.437,1.551-2.437,2.88-3.545,2.88c-1.108,0-3.323-0.886-4.653,0
					c-1.329,0.886-2.88,1.994-2.88,1.994h56.053C461.731,107.816,462.395,105.822,459.958,104.493z"/>
			</g>
		</g>
		<path style="fill:none;stroke:#263238;stroke-linecap:round;stroke-linejoin:round;stroke-miterlimit:10;" d="M426.799,103.582
			c-0.263,0.152-0.587,0.307-0.989,0.467"/>
		<path style="fill:none;stroke:#263238;stroke-linecap:round;stroke-linejoin:round;stroke-miterlimit:10;" d="M438.791,93.233
			c0,0-1.758,0.676-2.163,2.704c-0.406,2.028-1.352,3.38-2.434,3.515c-1.082,0.135-5.138-0.27-5.814,1.217
			c-0.238,0.522-0.291,0.961-0.379,1.358"/>
	</g>
	<g>
		<g>
			<g>
				<path style="fill:none;stroke:#263238;stroke-linecap:round;stroke-linejoin:round;stroke-miterlimit:10;" d="M283.472,334.661
					c-2.437-1.329-3.545-0.221-4.431-1.329c-0.886-1.108,2.437-3.988-4.21-6.868c0,0-0.443-6.203-9.527-6.425
					c-9.084-0.222-6.647,6.204-9.084,7.754c-2.437,1.551-3.102-0.886-5.539,0.665c-2.437,1.551-1.329,4.653-3.323,5.096
					c-1.994,0.443-4.652-1.994-7.09-0.443c-2.437,1.551-2.437,2.88-3.545,2.88s-3.323-0.886-4.653,0
					c-1.329,0.886-2.88,1.994-2.88,1.994h56.053C285.244,337.984,285.909,335.99,283.472,334.661z"/>
			</g>
		</g>
		<path style="fill:none;stroke:#263238;stroke-linecap:round;stroke-linejoin:round;stroke-miterlimit:10;" d="M250.313,333.751
			c-0.263,0.152-0.587,0.307-0.989,0.467"/>
		<path style="fill:none;stroke:#263238;stroke-linecap:round;stroke-linejoin:round;stroke-miterlimit:10;" d="M262.304,323.401
			c0,0-1.758,0.676-2.163,2.704c-0.406,2.028-1.352,3.38-2.434,3.516c-1.082,0.135-5.138-0.27-5.814,1.217
			c-0.237,0.522-0.291,0.961-0.379,1.358"/>
	</g>
</g>
<g id="Character">
	<g>
		<g>
			<g>
				<path style="fill:#757575;stroke:#263238;stroke-miterlimit:10;" d="M293.108,169.046c0,0,6.52,0.501,11.033,1.003
					c4.513,0.501,6.269,2.758,6.269,5.266c0,2.508-2.006,5.767-3.511,6.77c-1.504,1.003-4.263,1.254-5.767,0.501
					c-1.504-0.752-2.758-3.511-3.26-4.263c-0.502-0.752-7.021-1.254-7.021-1.254l1.003-7.773L293.108,169.046z"/>
				<path style="fill:#92E3A9;stroke:#263238;stroke-miterlimit:10;" d="M243.459,125.666c0,0,9.027,28.084,9.529,30.341
					c0.501,2.257,2.257,5.015,2.257,5.015s23.069,5.517,27.332,6.018c4.263,0.501,10.532,2.006,10.532,2.006l-1.003,10.782
					c0,0-17.302,3.009-26.329,3.761c-9.027,0.752-14.293-2.257-19.308-6.018c-5.015-3.761-24.154-30.961-24.154-30.961"/>
				<path style="fill:#263238;stroke:#263238;stroke-miterlimit:10;" d="M280.84,166.761c-0.381,0.292-2.375,1.712-5.242,1.712
					c-3.193,0-4.967-1.064-7.805-1.419s-7.45,2.483-7.45,2.483s4.967-2.129,7.805,0.355c2.838,2.484,3.902,3.903,6.386,3.903
					s5.676,0,5.676,0s-3.193,3.193-7.095,3.548s-7.45-3.193-10.288-2.129c-2.838,1.064-6.031,3.548-6.031,3.548
					s7.45-0.71,8.869,1.064c1.012,1.265,2.751,2.52,4.82,3.27c9.275-1.12,21.621-3.267,21.621-3.267l1.003-10.782
					c0,0-6.269-1.505-10.532-2.006C282.163,166.991,281.569,166.894,280.84,166.761z"/>
				<g>
					<path style="fill:#263238;stroke:#263238;stroke-miterlimit:10;" d="M227.416,141.557l-5.102,5.053
						c0,0,9.294,13.206,16.626,22.488l33.606-4.073c-7.907-1.756-17.301-4.002-17.301-4.002s-1.755-2.758-2.257-5.015
						c-0.184-0.828-1.517-5.137-3.13-10.257c-3.522-0.84-5.936-1.533-6.437-1.951C241.814,142.46,233.116,141.83,227.416,141.557z"
						/>
				</g>
			</g>
			<g>
				<polygon style="fill:#263238;stroke:#263238;stroke-miterlimit:10;" points="301.535,252.395 308.479,254.509 322.066,232.166 
					335.653,228.543 327.199,205.294 313.008,211.03 				"/>
				<g>
					<path style="fill:#263238;stroke:#263238;stroke-miterlimit:10;" d="M188.479,237.473l9.491,0.43l11.474,11.474l-5.435,31.401
						c0,0,0,1.208,4.831,2.717c4.831,1.51,8.454,0.604,8.454,0.604l2.415,1.208l-2.114,1.51c0,0-4.831,0.604-3.623,3.321
						c1.208,2.717,3.925,3.321,5.737,0.604s2.416-3.623,2.416-3.623l4.529-0.906l9.058-0.302l10.266,5.435l21.437-0.302
						l12.983-8.756l21.135-32.911l-0.906-5.435l-37.44-25.665l-16.305,22.947l-38.044-24.457"/>
					<polyline style="fill:none;stroke:#8F8F8F;stroke-miterlimit:10;" points="260.841,235.931 266.128,243.141 263.725,251.792 
											"/>
					<polyline style="fill:none;stroke:#8F8F8F;stroke-miterlimit:10;" points="288.238,245.063 282.951,249.389 280.548,259.002 
											"/>
				</g>
				<path style="fill:#263238;stroke:#263238;stroke-miterlimit:10;" d="M149.057,233.072c-26.18,0-47.404,21.223-47.404,47.404
					c0,26.18,21.223,47.404,47.404,47.404c26.18,0,47.404-21.223,47.404-47.404C196.461,254.295,175.238,233.072,149.057,233.072z
					 M149.057,314.896c-19.01,0-34.421-15.411-34.421-34.421c0-19.01,15.411-34.421,34.421-34.421s34.421,15.411,34.421,34.421
					C183.478,299.486,168.067,314.896,149.057,314.896z"/>
				<path style="fill:#263238;" d="M150.266,278.223l-13.769,7.617c2.93,13.768,17.87,14.061,17.87,14.061l14.354-0.586
					l41.306-20.213l0.586-5.859L150.266,278.223z M162.863,294.043h-3.515l1.172-3.223l4.687-2.344L162.863,294.043z M169.6,291.699
					l1.758-6.445l14.94-1.465l0.293,1.758L169.6,291.699z"/>
				
					<line style="fill:none;stroke:#263238;stroke-width:2;stroke-linecap:round;stroke-miterlimit:10;" x1="148.215" y1="266.798" x2="205.047" y2="265.919"/>
				<g>
					<circle style="fill:#FFFFFF;stroke:#263238;stroke-miterlimit:10;" cx="149.057" cy="280.475" r="14.493"/>
					<g>
						<circle style="fill:#FFFFFF;stroke:#263238;stroke-miterlimit:10;" cx="148.586" cy="272" r="3.296"/>
						<path style="fill:#FFFFFF;stroke:#263238;stroke-miterlimit:10;" d="M143.13,273.791c-1.577-0.91-3.592-0.37-4.503,1.206
							c-0.91,1.577-0.37,3.592,1.206,4.503c1.577,0.91,3.592,0.37,4.503-1.207C145.246,276.717,144.706,274.701,143.13,273.791z"/>
						<path style="fill:#FFFFFF;stroke:#263238;stroke-miterlimit:10;" d="M140.304,282.267c-1.577,0.91-2.117,2.926-1.206,4.503
							c0.91,1.576,2.926,2.117,4.503,1.206c1.577-0.91,2.117-2.926,1.207-4.503C143.897,281.897,141.881,281.357,140.304,282.267z"
							/>
						<circle style="fill:#FFFFFF;stroke:#263238;stroke-miterlimit:10;" cx="149.528" cy="288.952" r="3.296"/>
						<path style="fill:#FFFFFF;stroke:#263238;stroke-miterlimit:10;" d="M154.985,287.16c1.577,0.91,3.592,0.37,4.503-1.207
							c0.91-1.577,0.37-3.592-1.206-4.503c-1.577-0.91-3.592-0.37-4.503,1.206C152.868,284.234,153.408,286.25,154.985,287.16z"/>
						<path style="fill:#FFFFFF;stroke:#263238;stroke-miterlimit:10;" d="M157.81,278.684c1.577-0.91,2.117-2.926,1.206-4.503
							s-2.926-2.117-4.503-1.207c-1.577,0.91-2.117,2.926-1.206,4.503C154.218,279.054,156.234,279.595,157.81,278.684z"/>
					</g>
				</g>
				<path style="fill:#263238;stroke:#263238;stroke-miterlimit:10;" d="M371.886,258.132c-27.348,0-49.517,22.17-49.517,49.517
					c0,27.348,22.17,49.517,49.517,49.517c27.348,0,49.517-22.17,49.517-49.517C421.403,280.302,399.233,258.132,371.886,258.132z
					 M371.886,343.605c-19.858,0-35.955-16.098-35.955-35.955c0-19.858,16.098-35.955,35.955-35.955
					c19.858,0,35.955,16.098,35.955,35.955C407.841,327.507,391.743,343.605,371.886,343.605z"/>
				<g>
					<circle style="fill:#FFFFFF;stroke:#263238;stroke-miterlimit:10;" cx="371.886" cy="307.65" r="21.739"/>
					<path style="fill:#FFFFFF;stroke:#263238;stroke-miterlimit:10;" d="M383.473,322.333c-0.079,0-0.158-0.003-0.238-0.01
						c-1.43-0.13-2.484-1.394-2.356-2.825c0.603-6.664-1.617-13.239-1.64-13.304c-0.465-1.358,0.257-2.836,1.613-3.304
						c1.353-0.466,2.834,0.251,3.304,1.608c0.107,0.309,2.608,7.663,1.903,15.468C385.937,321.318,384.802,322.333,383.473,322.333z
						 M388.308,298.543c-7.093-3.332-14.859-3.497-15.186-3.502c-1.436-0.023-2.617,1.123-2.641,2.554
						c-0.025,1.435,1.118,2.618,2.553,2.646c0.069,0.001,7.006,0.164,13.062,3.009c1.3,0.61,2.849,0.052,3.46-1.247
						c0.034-0.073,0.064-0.146,0.091-0.22C390.102,300.534,389.535,299.121,388.308,298.543z M368.945,289.103
						c-5.557,5.526-8.368,12.767-8.485,13.072c-0.512,1.341,0.16,2.843,1.497,3.356c1.34,0.514,2.843-0.155,3.359-1.494
						c0.024-0.065,2.55-6.528,7.296-11.245c1.018-1.013,1.023-2.66,0.011-3.678c-0.057-0.056-0.115-0.11-0.176-0.161
						C371.429,288.099,369.907,288.148,368.945,289.103z M353.452,304.069c3.292,7.112,9.135,12.23,9.382,12.444
						c1.085,0.94,2.726,0.822,3.665-0.259c0.941-1.083,0.827-2.724-0.255-3.668c-0.052-0.045-5.262-4.629-8.072-10.702
						c-0.604-1.303-2.149-1.871-3.452-1.268c-0.072,0.034-0.143,0.071-0.211,0.11C353.357,301.392,352.883,302.839,353.452,304.069z
						 M362.216,323.747c7.809-0.661,14.617-4.401,14.903-4.56c1.255-0.698,1.704-2.281,1.01-3.533
						c-0.696-1.255-2.277-1.709-3.534-1.015c-0.06,0.034-6.149,3.361-12.817,3.925c-1.431,0.122-2.493,1.38-2.373,2.81
						c0.007,0.079,0.018,0.159,0.031,0.236C359.668,322.92,360.865,323.861,362.216,323.747z"/>
				</g>
				<circle style="fill:#263238;stroke:#263238;stroke-miterlimit:10;" cx="371.886" cy="307.65" r="6.643"/>
				<path style="fill:#ABABAB;stroke:#263238;stroke-miterlimit:10;" d="M209.746,263.567l-62.148,11.973
					c-2.093,0.403-3.55,2.313-3.387,4.438v0c0.176,2.285,2.154,4.005,4.441,3.862l39.354-2.46l12.681,0.302l16.003-4.529
					l-1.208-14.493L209.746,263.567z"/>
				<g>
					<polygon style="fill:#ABABAB;stroke:#263238;stroke-miterlimit:10;" points="246.039,295.066 225.209,284.487 227.497,280.087 
						247.126,290.04 268.338,288.909 282.14,278.487 315.709,222.141 319.97,224.679 285.904,281.86 270.117,293.782 					"/>
				</g>
				<path style="fill:#878787;stroke:#263238;stroke-miterlimit:10;" d="M293.238,269.686c0.22,1.663,0.186,3.01-0.236,3.563
					c-0.035,0.046-0.127,0.167-0.639,0.118c-2.463-0.234-3.472-2.302-4.841-5.679c-0.939-2.317-1.825-4.506-3.758-5.56
					c-2.883-1.572-26.256-11.414-31.747-11.414c-5.281,0-16.31,11.344-19.564,14.819c-0.749,0.8-0.708,2.055,0.092,2.804
					c0.801,0.751,2.057,0.707,2.804-0.092c6.108-6.523,14.218-13.564,16.668-13.564c4.283,0,26.386,9.042,29.847,10.93
					c0.688,0.375,1.376,2.07,1.981,3.567c1.31,3.232,3.104,7.66,8.142,8.14c0.193,0.018,0.383,0.027,0.57,0.027
					c1.496,0,2.759-0.588,3.599-1.688c1.973-2.581,1.069-7.536,0.083-10.972L293.238,269.686z"/>
				<circle style="fill:#D4D4D4;stroke:#263238;stroke-miterlimit:10;" cx="252.168" cy="270.663" r="13.738"/>
				<circle style="fill:#D4D4D4;stroke:#263238;stroke-miterlimit:10;" cx="252.168" cy="270.663" r="4.451"/>
				<polygon style="fill:#ABABAB;stroke:#263238;stroke-miterlimit:10;" points="320.858,180.535 341.692,212.238 333.238,215.559 
									"/>
				<path style="fill:#ABABAB;stroke:#263238;stroke-miterlimit:10;" d="M332.03,212.238c0,0,23.249-3.925,41.969,0.604
					c18.72,4.529,31.099,23.853,31.099,23.853s-21.437-15.399-31.099-16.003c-9.662-0.604-21.438-2.416-38.346,1.812L332.03,212.238
					z"/>
				<polygon style="fill:#ABABAB;stroke:#263238;stroke-miterlimit:10;" points="318.141,188.989 298.515,201.066 316.933,217.673 
					328.709,211.03 				"/>
				<g>
					<g>
						<g>
							
								<rect x="162.818" y="187.054" transform="matrix(0.5885 -0.8085 0.8085 0.5885 -102.9557 226.7227)" style="fill:#757575;stroke:#263238;stroke-miterlimit:10;" width="16.863" height="54.897"/>
						</g>
						<polygon style="fill:#263238;stroke:#263238;stroke-miterlimit:10;" points="154.019,191.533 144.528,190.801 
							140.301,197.141 144.095,205.166 						"/>
					</g>
					<path style="fill:#ABABAB;stroke:#263238;stroke-miterlimit:10;" d="M300.025,199.859c0,0-7.85-4.831-14.795-4.529
						c-6.944,0.302-17.21,2.717-19.324,3.019c-2.113,0.302-15.399,0.604-24.759,0.302s-94.204-12.077-100.846-13.587
						c-6.643-1.51-22.343-2.717-22.041-1.812c0.302,0.906,12.681,5.737,15.399,6.039s10.87,1.51,10.87,1.51
						s9.376,2.216,20.443,5.496l1.296,6.28l25.665,31.099l15.433-9.094c3.727,4.182,6.62,7.847,8.118,10
						c4.831,6.945,9.712,17.199,10.895,17.658c1.183,0.458,14.468,1.666,16.581,1.666c1.615,0,14.863-16.569,21.025-24.387
						c1.73-2.195,4.914-2.554,7.093-0.803c8.17,6.563,26.203,20.964,27.136,20.964c1.208,0,4.831-0.302,6.039-2.114
						c1.208-1.812,6.039-18.418,10.568-20.532c4.529-2.113,12.681-4.529,12.681-4.529L300.025,199.859z"/>
					<g>
						<path style="fill:#263238;" d="M184.982,201.001c-1.21-0.551-2.65-1.43-4.043-2.585l1.015-1.14
							c2.842,2.391,4.449,2.496,5.887,2.201l1.986,1.737l-11.101,12.475l-2.832-2.476L184.982,201.001z"/>
						<path style="fill:#263238;" d="M191.265,207.828c1.697-1.907,4.739-1.432,8.674,2.009c3.971,3.473,4.826,6.407,3.129,8.314
							l-5.725,6.433c-1.697,1.907-4.756,1.45-8.727-2.023c-3.935-3.441-4.773-6.393-3.077-8.3L191.265,207.828z M188.292,216.827
							c-0.999,1.123-0.61,2.668,1.45,4.469c2.096,1.833,3.654,1.992,4.654,0.869l5.867-6.594c1.015-1.14,0.661-2.654-1.434-4.487
							c-2.06-1.801-3.655-1.992-4.669-0.851L188.292,216.827z"/>
					</g>
					<path style="fill:#263238;stroke:#263238;stroke-miterlimit:10;" d="M248.394,209.823
						c11.775-4.831,33.213-10.568,35.326-13.285c0.348-0.447,0.641-0.832,0.879-1.17c-6.92,0.41-16.642,2.689-18.694,2.982
						c-2.113,0.302-15.399,0.604-24.759,0.302c-6.286-0.203-46.614-5.58-74.438-9.548c7.018,2.793,47.479,18.87,56.02,21.625
						C232.089,213.748,236.619,214.654,248.394,209.823z"/>
					<path style="fill:#263238;stroke:#263238;stroke-miterlimit:10;" d="M309.578,207.732c-8.77-0.71-30.481-2.064-32.395,1.764
						c-1.69,3.379,19.666,16.975,32.498,24.75c1.609-3.437,3.396-6.4,5.139-7.213c4.529-2.113,12.681-4.529,12.681-4.529
						L309.578,207.732z"/>
				</g>
				<path style="fill:#263238;stroke:#263238;stroke-miterlimit:10;" d="M311.499,167.552l-3.623,4.529c0,0-3.925,1.208-3.925,3.623
					s0.906,2.415,1.812,2.717c0.906,0.302,2.416,0,2.416,0s1.812,2.717,3.623,2.717c1.812,0,4.529-2.717,4.529-2.717
					L311.499,167.552z"/>
				<polygon style="fill:#263238;stroke:#263238;stroke-miterlimit:10;" points="307.271,161.815 313.612,177.818 318.745,176.308 
					314.216,162.721 307.875,158.494 				"/>
				<g>
					<path style="fill:#FFFFFF;stroke:#263238;stroke-miterlimit:10;" d="M365.848,306.787c-1.578,0-3.071-0.948-3.689-2.504
						l-48.913-123.19c-0.809-2.037,0.187-4.343,2.223-5.152c2.037-0.808,4.344,0.187,5.153,2.224l48.913,123.189
						c0.809,2.037-0.187,4.344-2.223,5.152C366.832,306.697,366.336,306.787,365.848,306.787z"/>
				</g>
				<path style="fill:#ABABAB;stroke:#263238;stroke-miterlimit:10;" d="M228.768,280.777c0-2.168-1.757-3.925-3.925-3.925
					s-3.925,1.757-3.925,3.925c0,2.168,1.757,3.925,3.925,3.925S228.768,282.945,228.768,280.777z"/>
				<path style="fill:#ABABAB;stroke:#263238;stroke-miterlimit:10;" d="M220.918,276.097c0-1.918-1.555-3.472-3.472-3.472
					s-3.472,1.555-3.472,3.472c0,1.918,1.555,3.472,3.472,3.472S220.918,278.015,220.918,276.097z"/>
				<g>
					<path style="fill:#263238;stroke:#263238;stroke-miterlimit:10;" d="M193.334,130.808c-0.026,0.035-0.043,0.059-0.043,0.059
						S193.307,130.844,193.334,130.808z"/>
				</g>
				<path style="fill:#263238;stroke:#263238;stroke-miterlimit:10;" d="M367.312,306.506c2.036-0.809,3.032-3.115,2.223-5.152
					l-26.552-66.873l-1.092,18.753l20.269,51.049c0.618,1.556,2.111,2.504,3.689,2.504
					C366.336,306.787,366.832,306.697,367.312,306.506z"/>
			</g>
			<g>
				<path style="fill:#263238;stroke:#263238;stroke-miterlimit:10;" d="M268.534,132.938c0,0-1.504,0.501-2.508,0.251
					c-1.003-0.251-5.015-3.761-5.015-3.761l-7.272,1.755c0,0-2.257-14.293-3.51-15.547c-1.254-1.254-3.26-4.012-3.26-4.012
					l1.755-3.009c0,0-2.508-2.758-3.511-6.52c-1.003-3.761-1.003-3.009-0.251-4.012c0.752-1.003,7.523-1.254,10.782,2.257
					C259.006,103.851,271.042,122.908,268.534,132.938z"/>
				<g>
					<g>
						<path style="fill:#92E3A9;stroke:#263238;stroke-miterlimit:10;" d="M246.719,109.618c0,0,8.024,6.77,9.278,15.045
							c1.254,8.275,2.758,13.039,1.505,14.042c-1.254,1.003-5.266-3.26-5.266-3.26s-4.012,12.036-12.788,18.305
							s-25.075,8.275-27.332,10.03c-2.257,1.755-5.516,3.51-14.293,9.779s-20.311,7.272-26.329,2.507
							c-6.018-4.764-9.529-16.8-1.755-26.329c7.773-9.529,10.03-12.036,20.311-20.812c10.281-8.776,26.83-16.299,39.87-19.057
							C242.958,107.11,246.719,109.618,246.719,109.618z"/>
					</g>
					<path style="fill:#263238;stroke:#263238;stroke-miterlimit:10;" d="M246.719,109.618c0,0-3.761-2.507-16.8,0.251
						c-8.625,1.824-18.777,5.74-27.643,10.717c-1.164,1.004-2.356,2.113-3.309,3.185c-2.641,2.971-5.28,6.553-5.633,7.037
						c0.25-0.334,1.743-2.137,5.279-2.779c3.903-0.71,3.548-3.548,6.386-4.967s7.095,0.71,7.095,0.71s-2.838-0.355-4.612,2.483
						c-1.774,2.838-1.419,7.45-4.967,8.869c-3.548,1.419-7.805,1.064-8.869,3.903c-1.064,2.838-1.774,4.967-1.774,4.967
						s4.967-2.129,6.386-2.129s3.193,1.064,5.676,1.064c2.483,0,2.838-1.419,5.322-3.193c2.483-1.774,12.417,0,12.417,0
						s-7.45,0.71-7.45,3.548s2.129,4.612-1.064,6.741c-3.193,2.129-7.805,1.064-9.579,3.548c-1.774,2.483-2.129,4.612-2.129,4.612
						s5.322-3.548,8.869-3.193c3.548,0.355,2.483,1.774,6.031,1.064c3.548-0.71,5.322-2.129,6.386-2.838c1.064-0.71,4.257,0,4.257,0
						s-4.967,1.774-5.676,3.902c-0.71,2.129-0.71,2.483-4.257,3.193c-3.548,0.709-6.741-0.355-7.096,1.774
						c-0.355,2.128-0.355,3.193-0.355,3.193s0.541-0.315,1.465-0.736c0.374-0.262,0.719-0.514,1.04-0.763
						c2.257-1.755,18.556-3.761,27.332-10.03c8.776-6.269,12.788-18.305,12.788-18.305s4.012,4.263,5.266,3.26
						c1.254-1.003-0.251-5.767-1.505-14.042C254.743,116.388,246.719,109.618,246.719,109.618z"/>
				</g>
				<g>
					<path style="fill:#92E3A9;stroke:#263238;stroke-miterlimit:10;" d="M193.56,150.49c0,0,0.251,2.508,0.251,3.761
						c0,1.254,0,3.009,0,3.009s39.869,19.057,47.392,22.568c7.523,3.51,14.042,11.033,11.785,19.809
						c-2.257,8.776-10.782,24.072-10.782,24.072l-2.257,3.51l-22.317-7.021c0,0,1.505-6.77,2.507-9.278
						c1.003-2.508,3.51-8.024,3.51-8.024l-2.758-4.263c0,0-13.039-1.003-26.58-4.012c-13.541-3.009-26.58-9.779-29.589-13.29
						s-5.266-11.785-2.006-21.565c3.26-9.779,11.033-14.544,11.033-14.544"/>
					<path style="fill:#263238;stroke:#263238;stroke-miterlimit:10;" d="M253.262,194.044c-0.966-6.303-6.198-11.48-12.06-14.215
						c-1.316-0.614-3.622-1.704-6.53-3.084l0.482,1.307c0,0-0.743-0.925-2.08-2.066c-2.571-1.221-5.507-2.618-8.591-4.087
						c-2.552-0.301-4.409,0.381-7.778,0.122c-4.612-0.355-7.45-0.71-10.998-4.257c-3.548-3.548-8.16-5.676-8.16-5.676
						s2.484,1.064,3.193,6.386c0.71,5.322,2.483,8.515,7.096,8.515s8.16-2.129,9.579,1.064c1.419,3.193,1.774,5.322,1.774,5.322
						s-4.967-2.838-8.869-1.774c-3.903,1.064-7.45,3.902-10.288,1.419c-2.838-2.483-3.548-7.45-6.386-7.805
						c-2.838-0.355-8.16,0-8.16,0s5.676,1.064,6.741,5.322c1.064,4.257,3.193,8.514,6.031,9.579
						c2.838,1.064,8.869,1.064,9.579,2.483s0.71,1.419,0.71,1.419s-8.514-0.355-11.353-0.355c-2.838,0-5.676-3.902-7.45-6.031
						c-1.774-2.129-3.548-2.129-7.095-2.129c-3.548,0-7.805-2.129-7.805-2.129s3.548,3.548,7.096,5.322
						c3.548,1.774,4.967,1.419,6.031,3.193c0.193,0.321,0.469,0.773,0.799,1.293c1.822,0.539,3.678,1.027,5.544,1.442
						c13.541,3.009,26.58,4.012,26.58,4.012l2.758,4.263c0,0-0.205,0.451-0.515,1.141c7.176,0.403,13.031,1.944,18.051-1.507
						C245.18,199.785,250.394,196.341,253.262,194.044z"/>
					<path style="fill:#263238;stroke:#263238;stroke-miterlimit:10;" d="M241.202,179.828c-0.745-0.348-1.811-0.85-3.121-1.469
						l-32.31,18.416c8.602,1.357,15.12,1.859,15.12,1.859l2.758,4.263c0,0-2.507,5.516-3.51,8.024
						c-0.739,1.847-1.748,6.001-2.229,8.064l23.462,6.021l0.833-1.297c0,0,8.526-15.296,10.782-24.072
						C255.245,190.861,248.725,183.339,241.202,179.828z"/>
					<path style="fill:#FFFFFF;stroke:#263238;stroke-miterlimit:10;" d="M220.892,198.635c0,0,10.782-8.275,19.308-11.284
						c8.526-3.009,12.538-1.755,13.791,4.514c1.254,6.269-0.251,10.281-1.755,10.281s-28.586,0.752-28.586,0.752L220.892,198.635z"
						/>
					<g>
						<path style="fill:#FFFFFF;stroke:#263238;stroke-miterlimit:10;" d="M218.384,215.936c0,0-2.006-0.501-4.514,6.52
							c-0.533,1.493-10.281,34.604-11.033,38.365c-0.752,3.761-2.758,9.528-0.501,11.534c2.257,2.006,10.281,2.006,12.036,1.755
							c1.755-0.251,2.758-2.006,4.012-1.254c1.254,0.752,1.755,1.755,7.272,1.755c5.517,0,16.299-0.251,18.806-1.755
							c2.507-1.504,3.009-6.269,1.003-7.021c-2.006-0.752-9.529-3.009-11.033-4.263c-1.505-1.254-4.764-6.018-4.764-7.523
							s5.517-9.027,9.027-15.547c3.51-6.52,4.263-10.532,4.263-13.039C242.958,222.958,225.405,215.184,218.384,215.936z"/>
						<g>
							<g>
								<path style="fill:#263238;" d="M225.406,253.036c-0.064,0-0.13-0.006-0.195-0.019c-3.6-0.719-13.448-0.236-13.548-0.232
									c-0.515,0.045-1.013-0.393-1.04-0.942c-0.028-0.547,0.394-1.012,0.941-1.04c0.414-0.021,10.197-0.499,14.035,0.268
									c0.538,0.107,0.886,0.63,0.778,1.167C226.284,252.71,225.869,253.036,225.406,253.036z"/>
							</g>
							<ellipse style="fill:none;stroke:#263238;stroke-miterlimit:10;" cx="211.238" cy="251.794" rx="3.636" ry="2.257"/>
						</g>
						<g>
							<g>
								<path style="fill:#263238;" d="M228.1,243.034c-0.063-0.016-0.124-0.038-0.184-0.067
									c-3.312-1.584-12.975-3.544-13.073-3.564c-0.51-0.084-0.885-0.631-0.776-1.169c0.108-0.537,0.631-0.884,1.169-0.776
									c0.407,0.081,10.005,2.03,13.536,3.72c0.494,0.237,0.703,0.829,0.467,1.323C229.031,242.934,228.549,243.148,228.1,243.034z
									"/>
							</g>
							<path style="fill:none;stroke:#263238;stroke-miterlimit:10;" d="M218.199,239.234c-0.307,1.208-2.134,1.786-4.08,1.291
								c-1.946-0.495-3.275-1.876-2.967-3.083c0.307-1.208,2.134-1.786,4.08-1.291C217.178,236.645,218.506,238.026,218.199,239.234
								z"/>
						</g>
						<g>
							<g>
								<path style="fill:#263238;" d="M232.445,231.566c-0.06-0.023-0.12-0.051-0.176-0.086
									c-3.124-1.928-12.523-4.906-12.619-4.936c-0.498-0.138-0.812-0.722-0.647-1.245c0.165-0.523,0.722-0.812,1.245-0.647
									c0.396,0.124,9.732,3.084,13.063,5.14c0.466,0.288,0.611,0.899,0.323,1.365C233.382,231.566,232.88,231.728,232.445,231.566
									z"/>
							</g>
							<path style="fill:none;stroke:#263238;stroke-miterlimit:10;" d="M223.005,226.733c-0.434,1.168-2.312,1.548-4.194,0.849
								c-1.882-0.7-3.056-2.214-2.622-3.382c0.434-1.168,2.312-1.548,4.194-0.849C222.265,224.051,223.439,225.565,223.005,226.733z
								"/>
						</g>
						<path style="fill:#FFFFFF;stroke:#263238;stroke-miterlimit:10;" d="M216.629,270.349c-7.309-1.87-12.535-2.816-15.149-3.233
							c-0.334,2.214-0.294,4.216,0.857,5.239c2.257,2.006,10.281,2.006,12.036,1.755c1.755-0.251,2.758-2.006,4.012-1.254
							c1.254,0.752,1.755,1.755,7.272,1.755c5.517,0,16.299-0.251,18.806-1.755c0.938-0.563,1.596-1.583,1.946-2.678
							C240.706,271.861,226.334,272.832,216.629,270.349z"/>
					</g>
				</g>
				<g>
					<path style="fill:#FFFFFF;stroke:#263238;stroke-miterlimit:10;" d="M290.601,114.131c0,0,7.021,5.015,10.03,5.516
						c3.009,0.502,6.018-0.501,5.266-2.507c-0.752-2.006-9.529-8.275-13.29-16.55s-8.024-12.788-15.296-17.553
						c-7.272-4.764-15.797-4.514-21.063,1.003c-5.266,5.517-12.036,14.293-12.036,14.293s15.547,19.057,17.553,21.815
						c2.006,2.758,8.275,19.809,8.275,19.809s6.018,1.254,7.522,0.752c1.505-0.502,5.517-7.523,5.015-10.281
						c-0.501-2.758-7.762-10.349-9.016-14.361c-1.254-4.012-1.015-8.708,3.499-8.959
						C281.573,106.859,290.601,114.131,290.601,114.131z"/>
					<polygon style="fill:#263238;stroke:#263238;stroke-miterlimit:10;" points="273.549,109.367 254.492,86.298 257.752,82.537 
						277.06,107.11 					"/>
					<path style="fill:#92E3A9;stroke:#263238;stroke-width:2;stroke-linecap:round;stroke-miterlimit:10;" d="M277.06,107.11
						l-3.66,2.798l-0.711,3.114c-0.295,1.293,0.005,2.651,0.818,3.699l6.836,8.81l10.415-10.663l-7.145-6.06
						c-1.214-1.029-2.744-1.611-4.335-1.647L277.06,107.11z"/>
				</g>
				<g>
					<g>
						<path style="fill:#757575;stroke:#263238;stroke-miterlimit:10;" d="M291.353,152.747c0,0,13.541-1.003,14.544-1.003
							s2.508,1.003,3.26,3.009c0.752,2.006,3.009,5.767,2.257,6.77c-0.752,1.003-4.263,5.266-6.018,5.266
							c-1.755,0-5.015-3.761-5.015-3.761s-1.254,1.254-3.26,0c-2.006-1.254-2.257-3.51-2.257-3.51l-4.012,0.251L291.353,152.747z"/>
						<circle style="fill:#263238;stroke:#263238;stroke-miterlimit:10;" cx="300.254" cy="157.637" r="3.134"/>
						<g>
							<path style="fill:#92E3A9;stroke:#263238;stroke-miterlimit:10;" d="M221.895,131.684c0,0,14.968,25.507,22.243,28.152
								c2.847,1.035,48.469,2.941,48.469,2.941v-10.281l-36.61-13.039c0,0-5.266-16.048-7.021-20.812
								c-1.755-4.764-7.523-7.021-12.538-7.021C236.438,111.624,218.924,111.57,221.895,131.684z"/>
						</g>
					</g>
					<path style="fill:#263238;stroke:#263238;stroke-miterlimit:10;" d="M269.567,147.186c-4.967-0.71-5.676-2.483-9.224-2.483
						c-3.548,0-6.741,3.548-6.741,3.548s4.257-2.129,8.16,0c3.903,2.129,3.548,3.548,6.031,4.257
						c2.483,0.71,6.386,1.419,6.386,1.419s-2.129,0.71-4.612,1.774c-2.483,1.064-5.676,0-8.869-0.71
						c-3.193-0.71-5.771-1.725-6.741-0.355c-0.969,1.37-3.548,2.483-3.548,2.483s5.322-1.064,7.095,0.355
						c1.774,1.419,4.612,2.838,6.386,2.838s7.095,0.709,7.095,0.709l-1.538,0.673c11.758,0.606,23.158,1.082,23.158,1.082v-10.281
						l-17.653-6.288C274.432,146.79,273.044,147.683,269.567,147.186z"/>
				</g>
			</g>
		</g>
		<g>
			<path style="fill:#263238;" d="M328.973,336.138c0,1.3-1.054,2.354-2.354,2.354c-1.3,0-2.354-1.054-2.354-2.354
				c0-1.3,1.054-2.354,2.354-2.354C327.919,333.784,328.973,334.838,328.973,336.138z"/>
			<path style="fill:#263238;" d="M310.816,340.845c0,0.928-0.753,1.681-1.681,1.681c-0.928,0-1.681-0.753-1.681-1.681
				c0-0.928,0.753-1.681,1.681-1.681C310.064,339.164,310.816,339.916,310.816,340.845z"/>
			<path style="fill:#263238;" d="M333.68,355.975c0,0.743-0.602,1.345-1.345,1.345c-0.743,0-1.345-0.602-1.345-1.345
				c0-0.743,0.602-1.345,1.345-1.345C333.078,354.63,333.68,355.232,333.68,355.975z"/>
			<path style="fill:#263238;" d="M318.214,355.303c0,0.371-0.301,0.672-0.673,0.672s-0.672-0.301-0.672-0.672
				s0.301-0.673,0.672-0.673S318.214,354.931,318.214,355.303z"/>
			<circle style="fill:#263238;" cx="353.518" cy="362.363" r="2.354"/>
		</g>
		<g>
			<path style="fill:#263238;" d="M106.388,322.352c0,1.114-0.903,2.017-2.017,2.017s-2.017-0.903-2.017-2.017
				c0-1.114,0.903-2.017,2.017-2.017S106.388,321.238,106.388,322.352z"/>
			<path style="fill:#263238;" d="M89.576,314.955c0,2.228-1.806,4.035-4.035,4.035c-2.228,0-4.035-1.806-4.035-4.035
				c0-2.228,1.806-4.035,4.035-4.035C87.77,310.92,89.576,312.727,89.576,314.955z"/>
			<path style="fill:#263238;" d="M113.785,337.146c0,1.114-0.903,2.017-2.017,2.017c-1.114,0-2.017-0.903-2.017-2.017
				s0.903-2.017,2.017-2.017C112.882,335.129,113.785,336.032,113.785,337.146z"/>
			<path style="fill:#263238;" d="M93.611,338.155c0,0.928-0.753,1.681-1.681,1.681c-0.928,0-1.681-0.753-1.681-1.681
				s0.753-1.681,1.681-1.681C92.859,336.474,93.611,337.226,93.611,338.155z"/>
			<path style="fill:#263238;" d="M144.718,336.474c0,1.114-0.903,2.017-2.017,2.017c-1.114,0-2.017-0.903-2.017-2.017
				c0-1.114,0.903-2.017,2.017-2.017C143.815,334.456,144.718,335.36,144.718,336.474z"/>
			<path style="fill:#263238;" d="M54.609,336.474c0,1.114-0.903,2.017-2.017,2.017c-1.114,0-2.017-0.903-2.017-2.017
				c0-1.114,0.903-2.017,2.017-2.017C53.705,334.456,54.609,335.36,54.609,336.474z"/>
			<path style="fill:#263238;" d="M129.252,334.12c0,0.929-0.753,1.681-1.681,1.681c-0.928,0-1.681-0.753-1.681-1.681
				c0-0.928,0.753-1.681,1.681-1.681C128.499,332.439,129.252,333.192,129.252,334.12z"/>
			<path style="fill:#263238;" d="M82.852,331.094c0,1.486-1.204,2.69-2.69,2.69c-1.486,0-2.69-1.204-2.69-2.69
				c0-1.486,1.204-2.69,2.69-2.69C81.648,328.404,82.852,329.608,82.852,331.094z"/>
			<path style="fill:#263238;" d="M103.698,254.433c0,1.114-0.903,2.017-2.017,2.017c-1.114,0-2.017-0.903-2.017-2.017
				c0-1.114,0.903-2.017,2.017-2.017C102.795,252.416,103.698,253.319,103.698,254.433z"/>
			<circle style="fill:#263238;" cx="61.669" cy="281.668" r="2.354"/>
		</g>
	</g>
</g>
</svg>
